<?xml version="1.0" encoding="UTF-8" standalone="no"?><!DOCTYPE svg PUBLIC "-//W3C//DTD SVG 1.1//EN" "http://www.w3.org/Graphics/SVG/1.1/DTD/svg11.dtd"><svg width="1427px" height="469px" version="1.1" xmlns="http://www.w3.org/2000/svg" xmlns:xlink="http://www.w3.org/1999/xlink" xml:space="preserve" xmlns:serif="http://www.serif.com/" style="fill-rule:evenodd;clip-rule:evenodd;stroke-linecap:round;stroke-linejoin:round;stroke-miterlimit:1.5;"><g><rect x="-0.603" y="-0.899" width="1427.52" height="471.549" style="fill:#414141;"/><g><rect x="454.673" y="106.261" width="33.686" height="235.145" style="fill:#fff;fill-rule:nonzero;"/><path d="M514.055,341.406l0,-235.145l49.869,0c19.376,0 34.072,5.284 44.09,15.853c10.018,10.568 15.027,25.54 15.027,44.915l-0,109.976c-0,22.018 -5.339,38.255 -16.018,48.714c-10.678,10.458 -26.035,15.687 -46.071,15.687l-46.897,-0Zm33.687,-203.44l-0,171.735l15.522,-0c9.467,-0 16.183,-2.367 20.146,-7.101c3.963,-4.733 5.944,-12.164 5.944,-22.292l0,-113.279c0,-9.247 -1.871,-16.403 -5.614,-21.467c-3.743,-5.064 -10.568,-7.596 -20.476,-7.596l-15.522,0Z" style="fill:#fff;fill-rule:nonzero;"/><rect x="644.424" y="104.28" width="406.339" height="239.108" style="fill:#fff;stroke:#fff;stroke-width:2.29px;"/><path d="M784.327,164.598l-36.59,-0l0,-8.251c0,-8.37 -1.973,-15.604 -5.919,-21.702c-3.946,-6.098 -10.582,-9.148 -19.909,-9.148c-5.022,0 -9.087,0.957 -12.196,2.87c-3.109,1.913 -5.62,4.305 -7.533,7.175c-1.913,3.109 -3.229,6.636 -3.946,10.582c-0.718,3.946 -1.076,8.071 -1.076,12.376c-0,5.022 0.179,9.207 0.538,12.555c0.358,3.348 1.255,6.337 2.69,8.968c1.435,2.63 3.528,4.902 6.278,6.816c2.75,1.913 6.516,3.826 11.299,5.739l27.981,11.12c8.131,3.109 14.707,6.756 19.729,10.941c5.022,4.185 8.968,9.028 11.838,14.528c2.63,5.74 4.424,12.257 5.381,19.551c0.956,7.294 1.435,15.604 1.435,24.931c-0,10.761 -1.077,20.746 -3.229,29.953c-2.152,9.207 -5.62,17.039 -10.403,23.496c-5.022,6.696 -11.598,11.957 -19.729,15.784c-8.131,3.826 -18.056,5.739 -29.774,5.739c-8.849,0 -17.099,-1.554 -24.752,-4.663c-7.652,-3.109 -14.229,-7.414 -19.729,-12.914c-5.501,-5.5 -9.865,-11.898 -13.094,-19.192c-3.228,-7.294 -4.842,-15.245 -4.842,-23.854l-0,-13.632l36.589,0l0,11.479c0,6.696 1.973,12.735 5.919,18.116c3.946,5.38 10.582,8.071 19.909,8.071c6.218,-0 11.06,-0.897 14.528,-2.691c3.468,-1.793 6.158,-4.364 8.071,-7.712c1.913,-3.348 3.049,-7.354 3.408,-12.017c0.359,-4.664 0.538,-9.865 0.538,-15.605c0,-6.696 -0.239,-12.196 -0.717,-16.501c-0.479,-4.304 -1.435,-7.772 -2.87,-10.403c-1.674,-2.63 -3.886,-4.782 -6.636,-6.456c-2.751,-1.675 -6.398,-3.468 -10.941,-5.381l-26.187,-10.762c-15.784,-6.457 -26.366,-15.006 -31.747,-25.648c-5.38,-10.642 -8.071,-23.975 -8.071,-39.998c0,-9.565 1.316,-18.653 3.946,-27.262c2.631,-8.61 6.577,-16.023 11.838,-22.241c5.022,-6.218 11.419,-11.18 19.191,-14.887c7.773,-3.707 17.04,-5.56 27.801,-5.56c9.088,0 17.398,1.674 24.931,5.022c7.533,3.348 14.05,7.772 19.55,13.273c11.001,11.479 16.502,24.632 16.502,39.459l-0,17.936Z" style="fill:#414141;fill-rule:nonzero;"/><path d="M802.454,344.023l0,-170.45l34.292,-0l-0,170.45l-34.292,-0Zm0,-205.078l0,-34.292l34.292,0l-0,34.292l-34.292,-0Z" style="fill:#414141;fill-rule:nonzero;"/><path d="M864.986,344.023l0,-170.45l34.292,-0l-0,16.473l0.672,0c3.586,-5.379 7.901,-9.805 12.944,-13.279c5.043,-3.474 11.486,-5.211 19.331,-5.211c7.396,-0 13.56,1.793 18.49,5.379c4.931,3.586 8.966,7.508 12.103,11.767c4.259,-4.707 8.966,-8.741 14.12,-12.103c5.155,-3.362 12.328,-5.043 21.517,-5.043c4.258,-0 8.629,0.728 13.111,2.185c4.483,1.457 8.517,3.866 12.103,7.228c3.586,3.362 6.5,7.676 8.741,12.944c2.242,5.267 3.362,11.71 3.362,19.331l0,130.779l-34.291,-0l-0,-118.004c-0,-6.276 -1.457,-11.206 -4.371,-14.793c-2.914,-3.586 -7.06,-5.379 -12.439,-5.379c-6.5,0 -10.982,2.018 -13.448,6.052c-2.465,4.034 -3.698,9.862 -3.698,17.482l0,114.642l-34.292,-0l0,-118.004c0,-6.276 -1.456,-11.206 -4.37,-14.793c-2.914,-3.586 -7.06,-5.379 -12.439,-5.379c-6.5,0 -10.983,2.018 -13.448,6.052c-2.465,4.034 -3.698,9.862 -3.698,17.482l-0,114.642l-34.292,-0Z" style="fill:#414141;fill-rule:nonzero;"/><g><path d="M1059.95,342.207l-0,-236.872l50.901,-0c9.315,-0 17.521,1.22 24.618,3.66c7.098,2.439 13.53,6.764 19.296,12.974c5.767,6.21 9.759,13.474 11.977,21.791c2.218,8.317 3.327,19.573 3.327,33.768c-0,10.646 -0.61,19.628 -1.83,26.947c-1.22,7.319 -3.826,14.195 -7.818,20.627c-4.658,7.762 -10.868,13.806 -18.631,18.131c-7.762,4.325 -17.965,6.488 -30.607,6.488l-17.299,-0l-0,92.486l-33.934,0Zm33.934,-204.934l-0,80.51l16.301,-0c6.876,-0 12.199,-0.998 15.969,-2.994c3.771,-1.997 6.543,-4.769 8.317,-8.318c1.775,-3.326 2.828,-7.43 3.161,-12.309c0.332,-4.879 0.499,-10.313 0.499,-16.302c-0,-5.544 -0.111,-10.812 -0.333,-15.802c-0.222,-4.99 -1.22,-9.371 -2.994,-13.141c-1.774,-3.771 -4.436,-6.654 -7.985,-8.65c-3.548,-1.996 -8.649,-2.994 -15.303,-2.994l-17.632,-0Z" style="fill:#fff;fill-rule:nonzero;"/><path d="M1174.06,184.536l35.93,-0l23.288,69.128l0.666,0l22.955,-69.128l34.932,-0l-48.572,157.948c-1.775,7.54 -4.27,13.751 -7.486,18.63c-3.216,4.879 -6.931,8.872 -11.145,11.977c-4.214,3.105 -8.705,5.267 -13.473,6.487c-4.769,1.22 -9.704,1.83 -14.805,1.83l-741.673,-0l0,-31.938l740.01,-0c3.327,-0 6.21,-0.444 8.649,-1.331c2.44,-0.887 4.658,-2.883 6.654,-5.988c1.775,-3.105 3.438,-7.486 4.99,-13.141c1.553,-5.656 3.327,-9.474 5.323,-19.455l-46.243,-125.019Z" style="fill:#fff;fill-rule:nonzero;"/></g></g><g id="_-Group-" serif:id="(Group)"><g><circle cx="174.628" cy="142.696" r="40.14" style="fill:#fff;"/><circle cx="254.907" cy="303.254" r="40.14" style="fill:#fff;"/><circle cx="395.395" cy="243.045" r="40.14" style="fill:#fff;"/><path d="M335.186,142.696l60.209,100.349" style="fill:none;stroke:#fff;stroke-width:17.7px;"/><path d="M254.907,303.254l-80.279,-147.146" style="fill:none;stroke:#fff;stroke-width:17.7px;"/><path d="M174.628,142.696l160.558,0" style="fill:none;stroke:#fff;stroke-width:17.7px;"/><circle cx="335.186" cy="142.696" r="40.14" style="fill:#fff;"/></g></g></g></svg>